User Type,Username,Date,Text
,frostyon420,2013-03-10T12:25Z,Okay here ya go bleach 288 english dub. Please I need help seeding lol 
,frostyon420,2013-03-10T16:47Z,If you guys like it let me know or if u have any tips for better quality. Please rate the video if possible
,jerbear85,2013-03-10T19:02Z,I'm not getting any audio on this..help??
,frostyon420,2013-03-10T20:19Z,"check your codecs if u look here the full NFO is listed both video and audio

General
Complete name                            : D:VideosAnimeBleachBleach season 14[Phr0stY]Bleach _ 288 .mp4
Format                                   : MPEG-4
Format profile                           : Base Media
Codec ID                                 : isom
File size                                : 227 MiB
Duration                                 : 22mn 1s
Overall bit rate                         : 1 438 Kbps
Writing application                      : Lavf54.59.106

Video
ID                                       : 1
Format                                   : AVC
Format/Info                              : Advanced Video Codec
Format profile                           : High@L3.1
Format settings, CABAC                   : Yes
Format settings, ReFrames                : 4 frames
Codec ID                                 : avc1
Codec ID/Info                            : Advanced Video Coding
Duration                                 : 22mn 1s
Bit rate                                 : 1 302 Kbps
Width                                    : 1 232 pixels
Height                                   : 720 pixels
Display aspect ratio                     : 1.711
Frame rate mode                          : Variable
Frame rate                               : 28.969 fps
Original frame rate                      : 28.770 fps
Minimum frame rate                       : 5.997 fps
Maximum frame rate                       : 30.283 fps
Color space                              : YUV
Chroma subsampling                       : 4:2:0
Bit depth                                : 8 bits
Scan type                                : Progressive
Bits/(Pixel*Frame)                       : 0.051
Stream size                              : 205 MiB (91%)
Writing library                          : x264 core 130 r2273 b3065e6
Encoding settings                        : cabac=1 / ref=3 / deblock=1:0:0 / analyse=0x3:0x133 / me=hex / subme=7 / psy=1 / psy_rd=1.00:0.00 / mixed_ref=1 / me_range=16 / chroma_me=1 / trellis=1 / 8x8dct=1 / cqm=0 / deadzone=21,11 / fast_pskip=1 / chroma_qp_offset=-2 / threads=12 / lookahead_threads=2 / sliced_threads=0 / nr=0 / decimate=1 / interlaced=0 / bluray_compat=0 / constrained_intra=0 / bframes=3 / b_pyramid=2 / b_adapt=1 / b_bias=0 / direct=1 / weightb=1 / open_gop=0 / weightp=2 / keyint=250 / keyint_min=25 / scenecut=40 / intra_refresh=0 / rc_lookahead=40 / rc=crf / mbtree=1 / crf=20.0 / qcomp=0.60 / qpmin=0 / qpmax=69 / qpstep=4 / ip_ratio=1.40 / aq=1:1.00

Audio
ID                                       : 2
Format                                   : MPEG Audio
Format version                           : Version 1
Format profile                           : Layer 2
Codec ID                                 : 6B
Duration                                 : 22mn 1s
Bit rate mode                            : Constant
Bit rate                                 : 128 Kbps
Channel(s)                               : 2 channels
Sampling rate                            : 48.0 KHz
Compression mode                         : Lossy
Stream size                              : 20.2 MiB (9%)"
,redwing48,2013-03-11T00:51Z,How would you rate the audio and video from 1-10?
,frostyon420,2013-03-11T19:20Z,@redwing48  you do it with your comments V/1-10 A/1-10 with one being worst and 10 the best
,TorrentMonster,2013-03-16T14:42Z,"V:6
A:5
For such a large file it lacks a lot of quality, but its watchable"
,frostyon420,2013-03-17T17:26Z,@torrentking I am in the process of finding a beter way to encode and convert without loseing too much quality.  They will get better ;) 
